<!-- File: icon.svg | Size: 128x128 | Theme: sonar (radar) + folder -->
<svg xmlns="http://www.w3.org/2000/svg" width="128" height="128" viewBox="0 0 128 128" role="img" aria-labelledby="title desc">
  <title id="title">Folder Sonar Icon</title>
  <desc id="desc">A rounded square with a radar sonar scanning over a folder symbol.</desc>

  <!-- ===== Background ===== -->
  <defs>
    <!-- Soft blue gradient -->
    <linearGradient id="bg" x1="0" y1="0" x2="1" y2="1">
      <stop offset="0%" stop-color="#0ea5e9"/>
      <stop offset="100%" stop-color="#0369a1"/>
    </linearGradient>

    <!-- Subtle inner shadow via stroke overlay -->
    <linearGradient id="edge" x1="0" y1="0" x2="0" y2="1">
      <stop offset="0%" stop-color="rgba(0,0,0,0.18)"/>
      <stop offset="100%" stop-color="rgba(255,255,255,0.12)"/>
    </linearGradient>

    <!-- Radar sweep gradient (fades out) -->
    <linearGradient id="sweep" x1="0" y1="0" x2="1" y2="0">
      <stop offset="0%" stop-color="rgba(255,255,255,0.65)"/>
      <stop offset="100%" stop-color="rgba(255,255,255,0)"/>
    </linearGradient>
  </defs>

  <!-- Rounded square card -->
  <rect x="6" y="6" width="116" height="116" rx="22" fill="url(#bg)"/>
  <!-- Edge gloss -->
  <rect x="6" y="6" width="116" height="116" rx="22" fill="none" stroke="rgba(255,255,255,0.2)" stroke-width="1"/>

  <!-- ===== Folder (bottom-left) ===== -->
  <!-- Folder base -->
  <g transform="translate(20,74)">
    <!-- Back tab -->
    <path d="M6 8h18c2.5 0 3.5 0.7 4.8 2.2l3.2 3.6H66a6 6 0 0 1 6 6v20a8 8 0 0 1-8 8H10a8 8 0 0 1-8-8V14a6 6 0 0 1 6-6z"
          fill="#f8fafc" fill-opacity="0.14"/>
    <!-- Front body -->
    <path d="M6 14h72a6 6 0 0 1 6 6v19c0 6.6-5.4 12-12 12H12c-6.6 0-12-5.4-12-12V20a6 6 0 0 1 6-6z"
          fill="#e2e8f0" fill-opacity="0.9"/>
    <!-- Folder line accent -->
    <path d="M6 20h72" stroke="#94a3b8" stroke-opacity="0.5" stroke-width="1.5" stroke-linecap="round"/>
  </g>

  <!-- ===== Radar / Sonar ===== -->
  <!-- Radar center (slightly above center, to overlap folder) -->
  <!-- Note: Center coordinates -->
  <g transform="translate(78,54)">
    <!-- Concentric rings -->
    <circle r="34" fill="none" stroke="rgba(255,255,255,0.28)" stroke-width="2"/>
    <circle r="24" fill="none" stroke="rgba(255,255,255,0.22)" stroke-width="2"/>
    <circle r="14" fill="none" stroke="rgba(255,255,255,0.18)" stroke-width="2"/>

    <!-- Sweep wedge (45 degrees) -->
    <!-- The wedge starts at angle -30° to +15° for a dynamic look -->
    <path d="
      M 0 0
      L 34 0
      A 34 34 0 0 1 29.4 17
      Z" fill="url(#sweep)" />

    <!-- Axis line -->
    <line x1="0" y1="0" x2="34" y2="0" stroke="rgba(255,255,255,0.6)" stroke-width="2" stroke-linecap="round"/>

    <!-- Blip (detected point) -->
    <circle cx="-18" cy="-10" r="3.5" fill="#22d3ee" stroke="white" stroke-width="1"/>
    <!-- Minor blip -->
    <circle cx="10" cy="-20" r="2.5" fill="#a7f3d0" stroke="white" stroke-width="1" opacity="0.9"/>

    <!-- Scanning tick marks -->
    <g stroke="rgba(255,255,255,0.35)" stroke-width="1" stroke-linecap="round">
      <line x1="0" y1="-34" x2="0" y2="-28"/>
      <line x1="24" y1="-24" x2="20" y2="-20"/>
      <line x1="34" y1="0" x2="28" y2="0"/>
      <line x1="24" y1="24" x2="20" y2="20"/>
      <line x1="0" y1="34" x2="0" y2="28"/>
      <line x1="-24" y1="24" x2="-20" y2="20"/>
      <line x1="-34" y1="0" x2="-28" y2="0"/>
      <line x1="-24" y1="-24" x2="-20" y2="-20"/>
    </g>

    <!-- Radar center dot -->
    <circle r="2.2" fill="white" opacity="0.9"/>
  </g>

  <!-- ===== Subtle foreground glare for depth ===== -->
  <path d="M20,24c22,-14 66,-14 88,6v0c0,0 -2,8 -8,12c-26,-18 -56,-20 -80,-8c-6,-4 -6,-10 0,-10z"
        fill="rgba(255,255,255,0.10)"/>
</svg>
